#!OML:ASF F:\VICON\USERDATA\INSTALL\rory3\rory3.ASF
:FULLY-SPECIFIED
:DEGREES
9
root 0.3677550336966786 17.52740098657211 -14.322489757978726 6.691275271239146 -0.15608793637945828 -1.524904339795818
lfemur -13.731805483195282 8.124963794180129 -17.39120496614243
ltibia 18.869805745772535
lfoot -10.515499270380216 4.201593421533282
ltoes -13.104196306009023
rfemur -14.206605079390178 -2.3029954169764126 19.053610857925484
rtibia 21.5122052267045
rfoot -13.299700142717272 -2.370931319029816
rtoes 5.390632848908815
lowerback -1.7731160656277676 -0.7226633544227554 0.5530391223294402
upperback 5.074629883513899 -1.087280686762985 1.6762786535984266
thorax 6.283480929038725 -0.5583370033589209 1.355646822118114
lowerneck -11.114904542377541 0.5330087073084725 -2.37721448729818
upperneck 36.28768602997105 1.0013800209293178 1.0970444663089567
head 14.257484924277403 0.2453792758485481 1.0190963985156372
lclavicle 1.1182325533445207e-15 -1.3239623304233036e-15
lhumerus -15.70030905064508 -0.729069851611631 88.64499519450845
lradius 19.204104481953937
lwrist 0.0671736760686068
lhand -23.4493019790079 -3.3362670740861287
lfingers 7.125019999999998
lthumb 3.0092080201709996 26.622292871178637
rclavicle 1.1182325533445207e-15 -1.3239623304233036e-15
rhumerus -19.116908938258984 -16.85289492251616 -83.51858881866349
rradius 26.205102474932797
rwrist 31.188909269887755
rhand -18.06819502680685 -26.684899113131433
rfingers 7.125019999999998
rthumb 8.204494973112862 -56.50559883258488
10
root 0.3989520384148525 17.527900983070666 -14.323389757245467 6.734715201447363 -0.37581007752784484 -1.583593398704293
lfemur -13.798905437601448 8.214853319112661 -17.458804566781172
ltibia 18.98210568047152
lfoot -10.705799079464493 4.82965225613571
ltoes -14.987193815987725
rfemur -14.25360504700447 -2.3752851276789517 19.006811165053904
rtibia 21.42660527452839
rfoot -13.221400217874109 -2.1240817697025216
rtoes 5.373392869794447
lowerback -1.7694660709510144 -0.6254535939649952 0.6102176008480078
upperback 5.071789894935283 -0.9605389381374557 1.6857484722248932
thorax 6.274880947752782 -0.4930922066599194 1.342657003401956
lowerneck -11.122504519724773 0.5515383793629858 -2.3297256723391064
upperneck 36.42228587998831 1.00719996362551 1.125424204158265
head 14.321484708568654 0.25687793325606756 1.0249761719367487
lclavicle 1.1182325462629134e-15 -1.3239622996748448e-15
lhumerus -15.58940916451424 0.30458015444343145 88.31109590788887
lradius 18.494005568359857
lwrist -0.898369488481352
lhand -23.526401542545823 -3.3378370678936116
lfingers 7.125019999999998
lthumb 2.9347084569086492 26.621692873560303
rclavicle 1.1182325462629134e-15 -1.3239622996748448e-15
rhumerus -19.10560895777126 -17.242994449307908 -83.4244890830929
rradius 25.80860302794411
rwrist 31.762307962437745
rhand -17.92889588936604 -26.768998371707568
rfingers 7.125019999999998
rthumb 8.338924110302935 -56.584398168411404
11
root 0.4253903474872115 17.52690099007356 -14.317689761889373 6.723895218831039 -0.4887571219946657 -1.6588721915928586
lfemur -13.817805424759054 8.232413226308292 -17.474204475802427
ltibia 19.12780559574887
lfoot -10.672299113072881 5.072621805292403
ltoes -15.011393783986389
rfemur -14.192705088968077 -2.346485242933714 18.991911262836247
rtibia 21.338205323916636
rfoot -13.158600278153159 -2.0681018719049034
rtoes 5.295002964761132
lowerback -1.8076960151955728 -0.5923170164965096 0.6551211913164972
upperback 5.099939781726761 -0.9209783287359521 1.707528055084918
thorax 6.3257608370352445 -0.4720095954836767 1.3427470021459484
lowerneck -11.053504725388015 0.5412925606975506 -2.321915867225812
upperneck 36.49658579719702 0.9975510586297092 1.0978144591963426
head 14.341084642507846 0.2492231613233293 1.0112067025475133
lclavicle 1.118232563629728e-15 -1.3239623093068911e-15
lhumerus -15.618009135148505 1.098706390821564 88.06539643282916
lradius 18.072206213685906
lwrist -1.474402990060148
lhand -23.531101515939184 -3.587766082100387
lfingers 7.125019999999998
lthumb 2.930158483581888 26.371893865126044
rclavicle 1.118232563629728e-15 -1.3239623093068911e-15
rhumerus -18.973509185875166 -17.6696939317023 -83.18438975779536
rradius 25.47720349015836
rwrist 32.26800680935531
rhand -17.873996229312198 -26.775798311758912
rfingers 7.125019999999998
rthumb 8.391933770069699 -56.589098128797
12
root 0.44806989696036487 17.523901011082238 -14.308989768977497 6.696675262563362 -0.42583865428556067 -1.754060665225465
lfemur -13.896105371554912 8.109023878422816 -17.447704632356764
ltibia 19.37460545223791
lfoot -10.513399272487012 5.201791565610841
ltoes -14.486694477833527
rfemur -14.097605154497469 -2.365685166097205 19.0171110974594
rtibia 21.2892053512925
rfoot -13.136000299845936 -2.124831768333249
rtoes 5.144033147655871
lowerback -1.8327459786621274 -0.6204356579497585 0.7301335071861905
upperback 5.114009725142605 -0.9641579024059026 1.725547709958088
thorax 6.355190772994031 -0.49014226106536785 1.3161373735056916
lowerneck -11.012604847295641 0.528332790064711 -2.2951865342324234
upperneck 36.543285745159906 0.9809862217289441 1.0659247537694756
head 14.35448459734383 0.24073541420836012 0.9910934776168615
lclavicle 1.1182325688566177e-15 -1.3239623185684731e-15
lhumerus -15.767808981337891 1.3227161754165464 87.9696966372931
lradius 17.923606441034057
lwrist -1.570712906726624
lhand -23.54490143781757 -3.6484158428799676
lfingers 7.125019999999998
lthumb 2.9169085612567063 26.311394105277078
rclavicle 1.1182325688566177e-15 -1.3239623185684731e-15
rhumerus -18.854809390840586 -17.91929362892666 -82.90509054265331
rradius 25.423303565334432
rwrist 32.47730633211554
rhand -18.091594881911764 -26.748398553316747
rfingers 7.125019999999998
rthumb 8.181945117845173 -56.569898290626064
